<svg width="52" height="41" viewBox="0 0 52 41" fill="none" xmlns="http://www.w3.org/2000/svg">
<path d="M11.3941 0C8.46939 0 6.30778 2.57109 6.40573 5.35718C6.49684 8.03577 6.37612 11.5035 5.50601 14.3331C4.63362 17.1696 3.15989 18.9675 0.75 19.1984V21.8016C3.15989 22.0326 4.63362 23.8305 5.50601 26.667C6.37612 29.4943 6.49684 32.9643 6.40345 35.6405C6.30779 38.429 8.46939 41 11.3963 41H41.3583C44.283 41 46.4469 38.429 46.3512 35.6405C46.2578 32.9643 46.3785 29.4943 47.2463 26.667C48.121 23.8305 49.5924 22.0326 52 21.8016V19.1984C49.5902 18.9675 48.121 17.1696 47.2463 14.3331C46.3785 11.5058 46.2578 8.03577 46.3512 5.35718C46.4469 2.57109 44.283 0 41.3583 0H11.3941ZM35.4953 25.2373C35.4953 29.0756 32.6457 31.4043 27.9148 31.4043H19.8606C19.7465 31.4045 19.6334 31.3823 19.5277 31.3385C19.4222 31.2949 19.3262 31.2308 19.2455 31.1498C19.1646 31.0689 19.1005 30.9727 19.0568 30.8667C19.0129 30.7609 18.9905 30.6474 18.9905 30.5327V10.4673C18.9905 10.3526 19.0129 10.2392 19.0568 10.1333C19.1005 10.0274 19.1646 9.93121 19.2455 9.85025C19.3262 9.76929 19.4222 9.70515 19.5277 9.66148C19.6334 9.61782 19.7465 9.5955 19.8606 9.5958H27.8669C31.8121 9.5958 34.4019 11.7414 34.4019 15.0376C34.4019 17.348 32.6595 19.4203 30.4409 19.7817V19.903C33.4612 20.2347 35.4953 22.3369 35.4953 25.2373ZM27.0355 12.359H22.4435V18.8736H26.3113C29.302 18.8736 30.9488 17.6658 30.9488 15.5042C30.9488 13.4799 29.5321 12.3613 27.0355 12.3613V12.359ZM22.4435 21.4585V28.6387H27.2042C30.3178 28.6387 31.9647 27.3829 31.9647 25.0246C31.9647 22.6685 30.2723 21.4585 27.0037 21.4585H22.4435Z" fill="#7810F7"/>
<path d="M11.3941 0C8.46939 0 6.30778 2.57109 6.40573 5.35718C6.49684 8.03577 6.37612 11.5035 5.50601 14.3331C4.63362 17.1696 3.15989 18.9675 0.75 19.1984V21.8016C3.15989 22.0326 4.63362 23.8305 5.50601 26.667C6.37612 29.4943 6.49684 32.9643 6.40345 35.6405C6.30779 38.429 8.46939 41 11.3963 41H41.3583C44.283 41 46.4469 38.429 46.3512 35.6405C46.2578 32.9643 46.3785 29.4943 47.2463 26.667C48.121 23.8305 49.5924 22.0326 52 21.8016V19.1984C49.5902 18.9675 48.121 17.1696 47.2463 14.3331C46.3785 11.5058 46.2578 8.03577 46.3512 5.35718C46.4469 2.57109 44.283 0 41.3583 0H11.3941ZM35.4953 25.2373C35.4953 29.0756 32.6457 31.4043 27.9148 31.4043H19.8606C19.7465 31.4045 19.6334 31.3823 19.5277 31.3385C19.4222 31.2949 19.3262 31.2308 19.2455 31.1498C19.1646 31.0689 19.1005 30.9727 19.0568 30.8667C19.0129 30.7609 18.9905 30.6474 18.9905 30.5327V10.4673C18.9905 10.3526 19.0129 10.2392 19.0568 10.1333C19.1005 10.0274 19.1646 9.93121 19.2455 9.85025C19.3262 9.76929 19.4222 9.70515 19.5277 9.66148C19.6334 9.61782 19.7465 9.5955 19.8606 9.5958H27.8669C31.8121 9.5958 34.4019 11.7414 34.4019 15.0376C34.4019 17.348 32.6595 19.4203 30.4409 19.7817V19.903C33.4612 20.2347 35.4953 22.3369 35.4953 25.2373ZM27.0355 12.359H22.4435V18.8736H26.3113C29.302 18.8736 30.9488 17.6658 30.9488 15.5042C30.9488 13.4799 29.5321 12.3613 27.0355 12.3613V12.359ZM22.4435 21.4585V28.6387H27.2042C30.3178 28.6387 31.9647 27.3829 31.9647 25.0246C31.9647 22.6685 30.2723 21.4585 27.0037 21.4585H22.4435Z" fill="#7810F7"/>
</svg>
