<svg width="41" height="41" viewBox="0 0 41 41" fill="none" xmlns="http://www.w3.org/2000/svg">
<path d="M40.2274 18.6742L22.3308 0.773033C21.8354 0.278044 21.1637 0 20.4634 0C19.763 0 19.0913 0.278044 18.5959 0.773033L14.8747 4.49147L19.5898 9.20655C22.0663 8.37006 24.411 10.7413 23.5608 13.2041L28.1057 17.749C31.2384 16.669 33.7048 20.5861 31.3519 22.9372C28.9275 25.3616 24.9263 22.6745 26.2268 19.5199L21.9849 15.2834V26.4351C24.3003 27.5827 24.0221 30.2652 22.8159 31.4686C22.2265 32.0576 21.4274 32.3885 20.5942 32.3885C19.761 32.3885 18.9619 32.0576 18.3726 31.4686C16.7646 29.8579 17.3595 27.1755 19.4022 26.3436V15.0867C17.4986 14.3078 17.1508 12.2734 17.6963 10.9683L13.048 6.31453L0.773412 18.5909C0.278199 19.0863 0 19.758 0 20.4584C0 21.1588 0.278199 21.8305 0.773412 22.3259L18.6755 40.227C19.1708 40.722 19.8423 41 20.5425 41C21.2427 41 21.9142 40.722 22.4095 40.227L40.2274 22.4091C40.7226 21.9138 41.0008 21.2421 41.0008 20.5417C41.0008 19.8413 40.7226 19.1695 40.2274 18.6742Z" fill="#E84D30"/>
</svg>
