<svg width="41" height="41" viewBox="0 0 41 41" fill="none" xmlns="http://www.w3.org/2000/svg">
<path d="M0 0V41H41V0H0ZM22.3121 31.9763C22.3121 35.9665 19.9692 37.7877 16.5556 37.7877C13.4714 37.7877 11.6868 36.1953 10.7717 34.2643L13.9107 32.3699C14.5147 33.4406 15.0638 34.3467 16.3908 34.3467C17.6538 34.3467 18.4592 33.8525 18.4592 31.9214V18.8252H22.3121V31.9763ZM31.4272 37.7877C27.8489 37.7877 25.5335 36.0855 24.4078 33.8525L27.5469 32.0404C28.3705 33.3857 29.4504 34.3833 31.3449 34.3833C32.9373 34.3833 33.9623 33.5871 33.9623 32.4797C33.9623 31.1618 32.919 30.6951 31.1527 29.9172L30.1917 29.5054C27.4096 28.3248 25.5701 26.833 25.5701 23.694C25.5701 20.802 27.7757 18.6056 31.2076 18.6056C33.6603 18.6056 35.4174 19.4567 36.6804 21.6897L33.6786 23.6116C33.0196 22.431 32.3058 21.9643 31.1984 21.9643C30.0728 21.9643 29.3589 22.6781 29.3589 23.6116C29.3589 24.7647 30.0728 25.2315 31.7292 25.9545L32.6902 26.3663C35.9665 27.7665 37.806 29.2033 37.806 32.4248C37.806 35.8842 35.0788 37.7877 31.4272 37.7877Z" fill="url(#paint0_linear_112_18)"/>
<defs>
<linearGradient id="paint0_linear_112_18" x1="-5" y1="20" x2="61" y2="26.5" gradientUnits="userSpaceOnUse">
<stop stop-color="#DC9A23"/>
<stop offset="1" stop-color="#F0BE25"/>
</linearGradient>
</defs>
</svg>
